<?xml version="1.0" encoding="UTF-8"?>
<!DOCTYPE svg PUBLIC "-//W3C//DTD SVG 1.1//EN" "http://www.w3.org/Graphics/SVG/1.1/DTD/svg11.dtd">
<!-- Creator: CorelDRAW 2021 (64 Bit) -->
<svg xmlns="http://www.w3.org/2000/svg" xml:space="preserve" width="209.903mm" height="296.686mm" version="1.1" style="shape-rendering:geometricPrecision; text-rendering:geometricPrecision; image-rendering:optimizeQuality; fill-rule:evenodd; clip-rule:evenodd"
viewBox="0 0 20990.28 29668.6"
 xmlns:xlink="http://www.w3.org/1999/xlink"
 xmlns:xodm="http://www.corel.com/coreldraw/odm/2003">
 <defs>
  <style type="text/css">
   <![CDATA[
    .str0 {stroke:#373435;stroke-width:176.39;stroke-miterlimit:10}
    .fil0 {fill:none;fill-rule:nonzero}
    .fil1 {fill:#373435;fill-rule:nonzero}
   ]]>
  </style>
 </defs>
 <g id="Camada_x0020_1">
  <metadata id="CorelCorpID_0Corel-Layer"/>
  <path class="fil0 str0" d="M13355.43 12592.86l160.82 0 0 -752.34c0,-21.09 -17.08,-38.17 -38.17,-38.17l-778.41 0 0 160.83 655.76 0 0 629.68z"/>
  <path class="fil0 str0" d="M8300.33 11963.18l0 -160.83 -778.41 0c-21.09,0 -38.17,17.08 -38.17,38.17l0 752.34 160.84 0 0 -629.68 655.74 0z"/>
  <path class="fil0 str0" d="M12699.67 17674.02l0 160.83 778.41 0c21.09,0 38.17,-17.07 38.17,-38.17l0 -804.47 -160.82 0 0 681.81 -655.76 0z"/>
  <path class="fil0 str0" d="M7644.59 16992.21l-160.84 0 0 804.47c0,21.1 17.08,38.17 38.17,38.17l778.41 0 0 -160.83 -655.74 0 0 -681.81z"/>
  <path class="fil1" d="M8192.83 15171.72c0,20.85 -0.85,37.19 -2.54,49.01 -1.7,11.85 -4.38,20.28 -8.01,25.32 -3.67,5.08 -8.19,7.34 -13.55,6.78 -5.33,-0.57 -12.24,-2.79 -20.67,-6.78l-647.98 -322.68c-7.87,-4.52 -13.66,-13.97 -17.29,-28.33 -3.67,-14.36 -5.5,-35.88 -5.5,-64.63 0,-14.6 0.53,-27.44 1.69,-38.42 1.09,-10.97 2.51,-20 4.2,-27.02 1.69,-7.05 4.09,-12.7 7.2,-16.9 3.06,-4.23 6.59,-7.48 10.54,-9.73l647.14 -321.03c16.33,-7.87 27.87,-6.32 34.64,4.66 6.74,10.97 10.13,33.37 10.13,67.16 0,23.11 -0.43,41.39 -1.27,54.93 -0.85,13.48 -2.4,24.2 -4.62,32.07 -2.26,7.9 -5.37,13.51 -9.32,16.9 -3.95,3.38 -9.28,6.77 -16.05,10.16l-486.62 228.1 477.34 221.34c8.43,3.91 15.35,7.9 20.71,11.81 5.33,3.92 9.42,9.99 12.24,18.17 2.79,8.15 4.76,19.16 5.89,32.92 1.13,13.83 1.7,32.56 1.7,56.19z"/>
  <path class="fil1" d="M9674.62 15288.31c0,5.64 -1.56,10.72 -4.62,15.24 -3.11,4.51 -8.75,8.15 -16.9,10.93 -8.19,2.83 -19.02,5.12 -32.53,6.81 -13.55,1.66 -30.73,2.51 -51.54,2.51 -20.28,0 -37.18,-0.85 -50.69,-2.51 -13.52,-1.69 -24.24,-3.98 -32.11,-6.81 -7.9,-2.78 -13.51,-6.42 -16.89,-10.93 -3.39,-4.52 -5.05,-9.6 -5.05,-15.24l0 -889.57 -1.73 0 -316.79 888.76c-2.26,7.3 -5.89,13.33 -10.97,18.13 -5.08,4.8 -12,8.57 -20.71,11.39 -8.72,2.86 -19.86,4.66 -33.34,5.51 -13.55,0.84 -29.88,1.27 -49.04,1.27 -19.15,0 -35.45,-0.74 -49,-2.12 -13.51,-1.41 -24.62,-3.63 -33.37,-6.74 -8.71,-3.1 -15.59,-6.88 -20.67,-11.39 -5.08,-4.52 -8.47,-9.88 -10.16,-16.05l-305.83 -888.76 -1.65 0 0 889.57c0,5.64 -1.56,10.72 -4.66,15.24 -3.1,4.51 -8.89,8.15 -17.32,10.93 -8.43,2.83 -19.3,5.12 -32.53,6.81 -13.23,1.66 -30.27,2.51 -51.11,2.51 -20.25,0 -37.15,-0.85 -50.7,-2.51 -13.51,-1.69 -24.38,-3.98 -32.49,-6.81 -8.18,-2.78 -13.83,-6.42 -16.9,-10.93 -3.1,-4.52 -4.65,-9.6 -4.65,-15.24l0 -974.06c0,-28.71 7.62,-50.69 22.78,-65.9 15.21,-15.2 35.49,-22.79 60.86,-22.79l145.27 0c25.93,0 48.19,2.12 66.78,6.32 18.56,4.23 34.61,11.29 48.12,21.13 13.55,9.84 24.77,22.79 33.8,38.84 8.99,16.05 16.9,35.91 23.67,59.58l236.54 651.34 3.38 0 244.97 -649.64c7.34,-23.67 15.35,-43.68 24.1,-59.97 8.71,-16.34 18.87,-29.6 30.41,-39.73 11.53,-10.16 25.22,-17.32 40.95,-21.55 15.77,-4.2 34.08,-6.32 54.93,-6.32l149.54 0c15.21,0 28.3,1.98 39.27,5.9 11.01,3.95 20,9.7 27.06,17.32 7.02,7.62 12.38,16.89 16.05,27.87 3.63,11 5.47,23.53 5.47,37.6l0 974.06z"/>
  <path class="fil1" d="M10560.83 14990.93c0,57.46 -10.72,107.88 -32.1,151.23 -21.41,43.39 -50.41,79.55 -87.03,108.55 -36.65,29.03 -79.41,50.87 -128.41,65.48 -49,14.64 -101.39,21.97 -157.13,21.97 -37.78,0 -72.81,-3.1 -105.2,-9.31 -32.38,-6.21 -60.96,-13.65 -85.72,-22.4 -24.8,-8.71 -45.51,-17.85 -62.13,-27.45 -16.61,-9.52 -28.57,-18.02 -35.87,-25.33 -7.34,-7.3 -12.56,-17.88 -15.63,-31.67 -3.11,-13.8 -4.66,-33.62 -4.66,-59.59 0,-17.43 0.57,-32.07 1.7,-43.92 1.12,-11.82 2.96,-21.38 5.5,-28.68 2.54,-7.34 5.89,-12.56 10.12,-15.66 4.24,-3.11 9.14,-4.63 14.78,-4.63 7.87,0 19.02,4.63 33.38,13.94 14.36,9.28 32.81,19.58 55.31,30.83 22.55,11.26 49.43,21.52 80.72,30.83 31.25,9.28 67.41,13.94 108.51,13.94 27.06,0 51.26,-3.25 72.68,-9.74 21.37,-6.42 39.58,-15.59 54.5,-27.44 14.92,-11.82 26.32,-26.46 34.18,-43.92 7.91,-17.43 11.82,-36.87 11.82,-58.32 0,-24.76 -6.74,-46 -20.25,-63.75 -13.51,-17.74 -31.15,-33.51 -52.81,-47.3 -21.66,-13.83 -46.32,-26.78 -73.91,-38.88 -27.62,-12.1 -56.02,-24.94 -85.33,-38.42 -29.28,-13.54 -57.72,-28.89 -85.3,-46.07 -27.63,-17.14 -52.25,-37.71 -73.95,-61.66 -21.66,-23.92 -39.26,-52.25 -52.77,-84.88 -13.55,-32.67 -20.29,-71.83 -20.29,-117.44 0,-52.39 9.7,-98.43 29.14,-138.12 19.44,-39.72 45.62,-72.67 78.57,-98.84 32.95,-26.21 71.82,-45.76 116.59,-58.74 44.77,-12.95 92.22,-19.44 142.35,-19.44 25.89,0 51.82,2.01 77.71,5.93 25.93,3.95 50.13,9.31 72.67,16.05 22.48,6.77 42.51,14.36 59.98,22.79 17.42,8.47 29,15.52 34.6,21.17 5.68,5.6 9.46,10.4 11.43,14.32 1.98,3.95 3.67,9.17 5.08,15.66 1.42,6.46 2.4,14.64 2.97,24.48 0.53,9.85 0.84,22.09 0.84,36.76 0,16.34 -0.42,30.13 -1.27,41.38 -0.81,11.29 -2.25,20.57 -4.23,27.87 -1.97,7.34 -4.8,12.7 -8.47,16.06 -3.63,3.38 -8.57,5.08 -14.78,5.08 -6.21,0 -16.05,-3.92 -29.56,-11.82 -13.55,-7.91 -30.13,-16.48 -49.85,-25.76 -19.68,-9.31 -42.54,-17.74 -68.4,-25.36 -25.93,-7.59 -54.36,-11.4 -85.34,-11.4 -24.23,0 -45.33,2.97 -63.36,8.86 -18.06,5.93 -33.12,14.08 -45.19,24.48 -12.13,10.44 -21.13,22.97 -27.06,37.61 -5.89,14.64 -8.85,30.13 -8.85,46.46 0,24.24 6.63,45.19 19.86,62.93 13.23,17.75 30.94,33.55 53.2,47.31 22.26,13.83 47.45,26.78 75.64,38.88 28.15,12.13 56.86,24.9 86.14,38.45 29.28,13.51 58,28.86 86.19,46.04 28.15,17.18 53.2,37.75 75.21,61.66 21.94,23.96 39.69,52.11 53.2,84.49 13.55,32.39 20.28,70.52 20.28,114.45z"/>
  <path class="fil1" d="M11255.29 14548.27c0,-36.02 -8.15,-66.47 -24.48,-91.23 -16.37,-24.8 -43.11,-42.26 -80.29,-52.39 -11.25,-2.82 -24.06,-5.08 -38.45,-6.77 -14.36,-1.7 -34.19,-2.51 -59.55,-2.51l-99.66 0 0 310.02 113.2 0c31.51,0 59.13,-3.81 82.77,-11.39 23.67,-7.58 43.39,-18.31 59.16,-32.1 15.73,-13.8 27.55,-30.27 35.45,-49.43 7.9,-19.15 11.85,-40.57 11.85,-64.2zm286.39 741.71c0,6.21 -1.13,11.43 -3.39,15.67 -2.26,4.23 -7.58,7.72 -16.05,10.54 -8.47,2.83 -20.81,4.77 -37.15,5.93 -16.37,1.13 -38.59,1.66 -66.78,1.66 -23.63,0 -42.51,-0.53 -56.55,-1.66 -14.11,-1.16 -25.22,-3.24 -33.41,-6.35 -8.15,-3.07 -13.93,-7.02 -17.32,-11.82 -3.38,-4.8 -6.21,-10.58 -8.43,-17.32l-98 -244.16c-11.82,-27.55 -23.39,-52.1 -34.64,-73.48 -11.26,-21.41 -23.82,-39.26 -37.57,-53.66 -13.83,-14.36 -29.74,-25.22 -47.77,-32.52 -18.03,-7.34 -38.84,-10.97 -62.48,-10.97l-69.28 0 0 416.48c0,5.65 -1.84,10.69 -5.51,15.21 -3.66,4.51 -9.73,8.18 -18.16,10.97 -8.44,2.82 -19.72,5.08 -33.8,6.77 -14.08,1.7 -32.07,2.51 -54.05,2.51 -21.44,0 -39.3,-0.81 -53.65,-2.51 -14.36,-1.69 -25.76,-3.95 -34.22,-6.77 -8.47,-2.79 -14.36,-6.46 -17.75,-10.97 -3.35,-4.52 -5.04,-9.56 -5.04,-15.21l0 -992.64c0,-24.8 6.35,-42.69 18.98,-53.66 12.66,-10.97 28.33,-16.47 46.88,-16.47l283.04 0c28.71,0 52.38,0.56 70.94,1.69 18.63,1.13 35.49,2.54 50.69,4.23 43.92,6.21 83.51,16.9 118.71,32.11 35.17,15.2 65.05,35.03 89.54,59.54 24.48,24.52 43.21,53.52 56.2,87 12.94,33.55 19.43,71.97 19.43,115.36 0,36.58 -4.65,69.95 -13.97,100.08 -9.31,30.13 -22.93,57.05 -40.95,80.68 -18.07,23.64 -40.29,44.2 -66.75,61.67 -26.49,17.46 -56.59,31.57 -90.38,42.26 16.33,7.87 31.64,17.46 46.04,28.72 14.35,11.28 27.87,24.9 40.53,40.95 12.66,16.05 24.62,34.36 35.91,54.93 11.26,20.57 22.23,43.78 32.95,69.71l92.11 215.41c8.43,21.41 14.04,37.04 16.87,46.88 2.82,9.84 4.23,17.6 4.23,23.21z"/>
  <path class="fil1" d="M12189.64 15537.53c-2.82,7.3 -6.53,13.23 -11.01,17.74 -4.48,4.52 -10.83,8.15 -19.01,10.97 -8.15,2.86 -18.28,4.94 -30.41,6.35 -12.14,1.38 -27.45,2.12 -46.04,2.12 -23.11,0 -41.94,-1.16 -56.58,-3.39 -14.68,-2.22 -25.79,-5.64 -33.38,-10.12 -7.62,-4.52 -11.96,-10.3 -13.08,-17.32 -1.17,-7.06 0,-15.38 3.35,-24.91l505.21 -1418.45c2.22,-7.3 5.64,-13.37 10.16,-18.17 4.48,-4.76 10.65,-8.57 18.56,-11.39 7.9,-2.82 18.16,-4.94 30.83,-6.35 12.66,-1.41 28.01,-2.12 46.07,-2.12 23.64,0 42.65,1.17 57.01,3.39 14.36,2.26 25.19,5.64 32.53,10.12 7.3,4.52 11.53,10.3 12.66,17.33 1.09,7.05 0.28,15.38 -2.54,24.94l-504.33 1419.26z"/>
  <path class="fil1" d="M13522.72 14832.97c0,14.64 -0.6,27.3 -1.7,37.99 -1.13,10.73 -2.68,19.76 -4.65,27.06 -1.98,7.34 -4.52,13.09 -7.62,17.32 -3.07,4.2 -6.6,7.16 -10.52,8.86l-647.98 321.06c-7.9,3.92 -14.67,5.61 -20.28,5.05 -5.65,-0.57 -10.3,-3.64 -13.94,-9.32 -3.67,-5.61 -6.21,-13.93 -7.58,-24.9 -1.41,-10.98 -2.15,-24.95 -2.15,-41.81 0,-23.07 0.45,-41.41 1.3,-54.93 0.85,-13.54 2.36,-24.2 4.62,-32.1 2.26,-7.9 5.36,-13.65 9.32,-17.32 3.91,-3.67 9.27,-6.91 16.05,-9.74l486.58 -228.07 -477.31 -221.33c-8.99,-3.95 -16.19,-7.87 -21.55,-11.82 -5.36,-3.95 -9.42,-10.02 -12.24,-18.17 -2.82,-8.15 -4.62,-19.15 -5.47,-32.98 -0.85,-13.76 -1.3,-32.49 -1.3,-56.16 0,-20.82 0.74,-37.19 2.15,-49 1.37,-11.82 3.91,-20.29 7.58,-25.33 3.64,-5.08 8.29,-7.31 13.94,-6.78 5.61,0.57 12.38,2.83 20.28,6.78l648.8 323.56c7.33,3.36 13.08,12.39 17.32,27.03 4.23,14.64 6.35,36.33 6.35,65.05z"/>
 </g>
</svg>
