<?xml version="1.0" encoding="UTF-8"?>
<svg id="Camada_2" xmlns="http://www.w3.org/2000/svg" viewBox="0 0 171.37 42.87">
  <defs>
    <style>
      .cls-1 {
        fill: #ffffff;
      }
    </style>
  </defs>
  <g id="Camada_1-2" data-name="Camada_1">
    <g>
      <path class="cls-1" d="M20.28,31.44c0,.59-.02,1.05-.07,1.39-.05.34-.12.58-.23.72-.1.14-.23.21-.38.19-.15-.02-.35-.08-.59-.19L.65,24.4c-.22-.13-.39-.4-.49-.8-.1-.41-.16-1.02-.16-1.83,0-.41.02-.78.05-1.09.03-.31.07-.57.12-.77s.12-.36.2-.48c.09-.12.19-.21.3-.28l18.34-9.1c.46-.22.79-.18.98.13.19.31.29.95.29,1.9,0,.65-.01,1.17-.04,1.56-.02.38-.07.69-.13.91-.06.22-.15.38-.26.48s-.26.19-.45.29l-13.79,6.47,13.53,6.27c.24.11.44.22.59.33.15.11.27.28.35.51.08.23.14.54.17.93.03.39.05.92.05,1.59Z"/>
      <path class="cls-1" d="M62.29,34.75c0,.16-.04.3-.13.43-.09.13-.25.23-.48.31-.23.08-.54.14-.92.19-.38.05-.87.07-1.46.07s-1.05-.02-1.44-.07c-.38-.05-.69-.11-.91-.19-.22-.08-.38-.18-.48-.31s-.14-.27-.14-.43V9.53h-.05l-8.98,25.19c-.06.21-.17.38-.31.51-.14.14-.34.24-.59.32-.25.08-.56.13-.95.16-.38.02-.85.04-1.39.04s-1.01-.02-1.39-.06c-.38-.04-.7-.1-.95-.19s-.44-.2-.59-.32c-.14-.13-.24-.28-.29-.46l-8.67-25.19h-.05v25.22c0,.16-.04.3-.13.43s-.25.23-.49.31c-.24.08-.55.14-.92.19-.38.05-.86.07-1.45.07s-1.05-.02-1.44-.07-.69-.11-.92-.19c-.23-.08-.39-.18-.48-.31-.09-.13-.13-.27-.13-.43V7.14c0-.81.22-1.44.65-1.87.43-.43,1.01-.65,1.72-.65h4.12c.73,0,1.37.06,1.89.18s.98.32,1.36.6.7.65.96,1.1c.25.46.48,1.02.67,1.69l6.71,18.46h.1l6.94-18.42c.21-.67.44-1.24.68-1.7s.53-.84.86-1.13c.33-.29.71-.49,1.16-.61s.97-.18,1.56-.18h4.24c.43,0,.8.06,1.11.17.31.11.57.28.77.49.2.22.35.48.46.79.1.31.16.67.16,1.07v27.61Z"/>
      <path class="cls-1" d="M87.41,26.32c0,1.63-.3,3.06-.91,4.29s-1.43,2.25-2.47,3.08-2.25,1.44-3.64,1.86c-1.39.42-2.87.62-4.45.62-1.07,0-2.06-.09-2.98-.26-.92-.18-1.73-.39-2.43-.63-.7-.25-1.29-.51-1.76-.78-.47-.27-.81-.51-1.02-.72-.21-.21-.36-.51-.44-.9-.09-.39-.13-.95-.13-1.69,0-.49.02-.91.05-1.25.03-.33.08-.61.16-.81.07-.21.17-.36.29-.44s.26-.13.42-.13c.22,0,.54.13.95.4.41.26.93.55,1.57.87.64.32,1.4.61,2.29.87.89.26,1.91.39,3.08.39.77,0,1.45-.09,2.06-.28.61-.18,1.12-.44,1.54-.78.42-.33.75-.75.97-1.25.22-.49.33-1.04.33-1.65,0-.7-.19-1.3-.57-1.81s-.88-.95-1.5-1.34c-.61-.39-1.31-.76-2.09-1.1-.78-.34-1.59-.71-2.42-1.09-.83-.38-1.64-.82-2.42-1.31s-1.48-1.07-2.1-1.75c-.61-.68-1.11-1.48-1.5-2.41-.38-.93-.57-2.04-.57-3.33,0-1.48.28-2.79.83-3.92s1.29-2.06,2.23-2.8c.93-.74,2.04-1.3,3.3-1.66,1.27-.37,2.61-.55,4.04-.55.73,0,1.47.06,2.2.17.73.11,1.42.26,2.06.46.64.19,1.21.41,1.7.65.49.24.82.44.98.6.16.16.27.3.32.41.06.11.1.26.14.44s.07.42.08.69.02.63.02,1.04c0,.46-.01.85-.04,1.17-.02.32-.06.58-.12.79-.06.21-.14.36-.24.46-.1.1-.24.14-.42.14s-.46-.11-.84-.34c-.38-.22-.85-.47-1.41-.73-.56-.26-1.21-.5-1.94-.72-.73-.22-1.54-.32-2.42-.32-.69,0-1.29.08-1.8.25-.51.17-.94.4-1.28.69-.34.3-.6.65-.77,1.07-.17.42-.25.85-.25,1.32,0,.69.19,1.28.56,1.78s.88.95,1.51,1.34c.63.39,1.34.76,2.14,1.1.8.34,1.61.71,2.44,1.09s1.64.82,2.44,1.31c.8.49,1.51,1.07,2.13,1.75.62.68,1.12,1.48,1.51,2.4.38.92.58,2,.58,3.24Z"/>
      <path class="cls-1" d="M115.21,34.79c0,.18-.03.32-.1.44-.06.12-.22.22-.46.3-.24.08-.59.14-1.05.17-.46.03-1.09.05-1.89.05-.67,0-1.21-.02-1.6-.05-.4-.03-.71-.09-.95-.18-.23-.09-.4-.2-.49-.33s-.18-.3-.24-.49l-2.78-6.92c-.33-.78-.66-1.48-.98-2.08s-.67-1.11-1.07-1.52c-.39-.41-.84-.71-1.35-.92-.51-.21-1.1-.31-1.77-.31h-1.96v11.81c0,.16-.05.3-.16.43-.1.13-.28.23-.51.31-.24.08-.56.14-.96.19-.4.05-.91.07-1.53.07s-1.11-.02-1.52-.07-.73-.11-.97-.19c-.24-.08-.41-.18-.5-.31s-.14-.27-.14-.43V6.61c0-.7.18-1.21.54-1.52.36-.31.8-.47,1.33-.47h8.02c.81,0,1.49.02,2.01.05.53.03,1.01.07,1.44.12,1.25.18,2.37.48,3.37.91,1,.43,1.84.99,2.54,1.69.69.69,1.22,1.52,1.59,2.47.37.95.55,2.04.55,3.27,0,1.04-.13,1.98-.4,2.84-.26.85-.65,1.62-1.16,2.29-.51.67-1.14,1.25-1.89,1.75-.75.5-1.6.89-2.56,1.2.46.22.9.5,1.3.81s.79.71,1.15,1.16.7.97,1.02,1.56.63,1.24.93,1.98l2.61,6.11c.24.61.4,1.05.48,1.33s.12.5.12.66ZM107.09,13.77c0-1.02-.23-1.88-.69-2.59-.46-.7-1.22-1.2-2.28-1.48-.32-.08-.68-.14-1.09-.19s-.97-.07-1.69-.07h-2.83v8.79h3.21c.89,0,1.68-.11,2.35-.32s1.23-.52,1.68-.91c.45-.39.78-.86,1-1.4.22-.54.34-1.15.34-1.82Z"/>
      <path class="cls-1" d="M133.58,41.81c-.08.21-.18.38-.31.5-.13.13-.31.23-.54.31s-.52.14-.86.18c-.34.04-.78.06-1.3.06-.66,0-1.19-.03-1.6-.1-.42-.06-.73-.16-.95-.29-.22-.13-.34-.29-.37-.49s0-.44.1-.71L142.06,1.08c.06-.21.16-.38.29-.52.13-.14.3-.24.53-.32.22-.08.51-.14.87-.18.36-.04.79-.06,1.31-.06.67,0,1.21.03,1.62.1.41.06.71.16.92.29.21.13.33.29.36.49.03.2,0,.44-.07.71l-14.3,40.23Z"/>
      <path class="cls-1" d="M171.37,21.84c0,.42-.02.77-.05,1.08-.03.3-.08.56-.13.77-.06.21-.13.37-.22.49-.09.12-.19.2-.3.25l-18.37,9.1c-.22.11-.42.16-.57.14-.16-.02-.29-.1-.4-.26-.1-.16-.18-.4-.21-.71-.04-.31-.06-.71-.06-1.19,0-.65.01-1.17.04-1.56.02-.38.07-.69.13-.91.06-.22.15-.39.26-.49.11-.1.26-.2.46-.28l13.79-6.47-13.53-6.27c-.25-.11-.46-.22-.61-.33-.15-.11-.27-.28-.35-.52-.08-.23-.13-.54-.16-.93-.02-.39-.04-.92-.04-1.59,0-.59.02-1.05.06-1.39.04-.33.11-.57.21-.72s.24-.21.4-.19c.16.02.35.08.57.19l18.39,9.17c.21.1.37.35.49.77.12.42.18,1.03.18,1.84Z"/>
    </g>
  </g>
</svg>